<mxfile host="app.diagrams.net" agent="Mozilla/5.0 (Windows NT 10.0; Win64; x64) AppleWebKit/537.36 (KHTML, like Gecko) Chrome/126.0.0.0 Safari/537.36" version="24.7.5">
  <diagram id="R2lEEEUBdFMjLlhIrx00" name="Page-1">
    <mxGraphModel dx="2376" dy="949" grid="1" gridSize="10" guides="1" tooltips="1" connect="1" arrows="1" fold="1" page="1" pageScale="1" pageWidth="850" pageHeight="1100" math="0" shadow="0" extFonts="Permanent Marker^https://fonts.googleapis.com/css?family=Permanent+Marker">
      <root>
        <mxCell id="0" />
        <mxCell id="1" parent="0" />
        <mxCell id="q_hlTN3DEtr5JDuEofaN-79" style="edgeStyle=orthogonalEdgeStyle;rounded=0;orthogonalLoop=1;jettySize=auto;html=1;exitX=0;exitY=0.25;exitDx=0;exitDy=0;entryX=1;entryY=0.5;entryDx=0;entryDy=0;endArrow=none;endFill=0;" edge="1" parent="1" source="q_hlTN3DEtr5JDuEofaN-53" target="q_hlTN3DEtr5JDuEofaN-58">
          <mxGeometry relative="1" as="geometry" />
        </mxCell>
        <mxCell id="q_hlTN3DEtr5JDuEofaN-80" style="edgeStyle=orthogonalEdgeStyle;rounded=0;orthogonalLoop=1;jettySize=auto;html=1;exitX=0;exitY=1;exitDx=0;exitDy=0;entryX=1;entryY=0.5;entryDx=0;entryDy=0;endArrow=none;endFill=0;" edge="1" parent="1" source="q_hlTN3DEtr5JDuEofaN-53" target="q_hlTN3DEtr5JDuEofaN-55">
          <mxGeometry relative="1" as="geometry" />
        </mxCell>
        <mxCell id="q_hlTN3DEtr5JDuEofaN-53" value="Customers" style="rounded=0;whiteSpace=wrap;html=1;" vertex="1" parent="1">
          <mxGeometry x="-480" y="730" width="170" height="80" as="geometry" />
        </mxCell>
        <mxCell id="q_hlTN3DEtr5JDuEofaN-55" value="customer_name" style="ellipse;whiteSpace=wrap;html=1;" vertex="1" parent="1">
          <mxGeometry x="-610" y="790" width="100" height="60" as="geometry" />
        </mxCell>
        <mxCell id="q_hlTN3DEtr5JDuEofaN-93" style="edgeStyle=orthogonalEdgeStyle;rounded=0;orthogonalLoop=1;jettySize=auto;html=1;exitX=0.75;exitY=1;exitDx=0;exitDy=0;entryX=0.5;entryY=0;entryDx=0;entryDy=0;endArrow=none;endFill=0;" edge="1" parent="1" source="q_hlTN3DEtr5JDuEofaN-56" target="q_hlTN3DEtr5JDuEofaN-63">
          <mxGeometry relative="1" as="geometry" />
        </mxCell>
        <mxCell id="q_hlTN3DEtr5JDuEofaN-94" style="edgeStyle=orthogonalEdgeStyle;rounded=0;orthogonalLoop=1;jettySize=auto;html=1;exitX=0.25;exitY=1;exitDx=0;exitDy=0;entryX=0.5;entryY=0;entryDx=0;entryDy=0;endArrow=none;endFill=0;" edge="1" parent="1" source="q_hlTN3DEtr5JDuEofaN-56" target="q_hlTN3DEtr5JDuEofaN-62">
          <mxGeometry relative="1" as="geometry" />
        </mxCell>
        <mxCell id="q_hlTN3DEtr5JDuEofaN-142" style="edgeStyle=orthogonalEdgeStyle;rounded=0;orthogonalLoop=1;jettySize=auto;html=1;exitX=0;exitY=0.25;exitDx=0;exitDy=0;entryX=0.5;entryY=1;entryDx=0;entryDy=0;endArrow=none;endFill=0;" edge="1" parent="1" source="q_hlTN3DEtr5JDuEofaN-56" target="q_hlTN3DEtr5JDuEofaN-64">
          <mxGeometry relative="1" as="geometry" />
        </mxCell>
        <mxCell id="q_hlTN3DEtr5JDuEofaN-56" value="Books" style="rounded=0;whiteSpace=wrap;html=1;" vertex="1" parent="1">
          <mxGeometry x="-160" y="730" width="170" height="80" as="geometry" />
        </mxCell>
        <mxCell id="q_hlTN3DEtr5JDuEofaN-85" style="edgeStyle=orthogonalEdgeStyle;rounded=0;orthogonalLoop=1;jettySize=auto;html=1;exitX=1;exitY=0.25;exitDx=0;exitDy=0;entryX=0;entryY=1;entryDx=0;entryDy=0;endArrow=none;endFill=0;" edge="1" parent="1" source="q_hlTN3DEtr5JDuEofaN-57" target="q_hlTN3DEtr5JDuEofaN-60">
          <mxGeometry relative="1" as="geometry" />
        </mxCell>
        <mxCell id="q_hlTN3DEtr5JDuEofaN-86" style="edgeStyle=orthogonalEdgeStyle;rounded=0;orthogonalLoop=1;jettySize=auto;html=1;exitX=1;exitY=0.75;exitDx=0;exitDy=0;entryX=0;entryY=0.5;entryDx=0;entryDy=0;endArrow=none;endFill=0;" edge="1" parent="1" source="q_hlTN3DEtr5JDuEofaN-57" target="q_hlTN3DEtr5JDuEofaN-61">
          <mxGeometry relative="1" as="geometry" />
        </mxCell>
        <mxCell id="q_hlTN3DEtr5JDuEofaN-57" value="Authors" style="rounded=0;whiteSpace=wrap;html=1;" vertex="1" parent="1">
          <mxGeometry x="220" y="730" width="170" height="80" as="geometry" />
        </mxCell>
        <mxCell id="q_hlTN3DEtr5JDuEofaN-58" value="&lt;u&gt;customer_id&lt;/u&gt;" style="ellipse;whiteSpace=wrap;html=1;" vertex="1" parent="1">
          <mxGeometry x="-610" y="720" width="100" height="60" as="geometry" />
        </mxCell>
        <mxCell id="q_hlTN3DEtr5JDuEofaN-73" style="edgeStyle=orthogonalEdgeStyle;rounded=0;orthogonalLoop=1;jettySize=auto;html=1;exitX=0;exitY=0.75;exitDx=0;exitDy=0;entryX=1;entryY=0.5;entryDx=0;entryDy=0;endArrow=none;endFill=0;" edge="1" parent="1" source="q_hlTN3DEtr5JDuEofaN-59" target="q_hlTN3DEtr5JDuEofaN-67">
          <mxGeometry relative="1" as="geometry" />
        </mxCell>
        <mxCell id="q_hlTN3DEtr5JDuEofaN-74" style="edgeStyle=orthogonalEdgeStyle;rounded=0;orthogonalLoop=1;jettySize=auto;html=1;exitX=0;exitY=0.25;exitDx=0;exitDy=0;endArrow=none;endFill=0;" edge="1" parent="1" source="q_hlTN3DEtr5JDuEofaN-59" target="q_hlTN3DEtr5JDuEofaN-66">
          <mxGeometry relative="1" as="geometry" />
        </mxCell>
        <mxCell id="q_hlTN3DEtr5JDuEofaN-76" style="edgeStyle=orthogonalEdgeStyle;rounded=0;orthogonalLoop=1;jettySize=auto;html=1;exitX=0.5;exitY=0;exitDx=0;exitDy=0;entryX=0.5;entryY=1;entryDx=0;entryDy=0;endArrow=none;endFill=0;" edge="1" parent="1" source="q_hlTN3DEtr5JDuEofaN-59" target="q_hlTN3DEtr5JDuEofaN-70">
          <mxGeometry relative="1" as="geometry" />
        </mxCell>
        <mxCell id="q_hlTN3DEtr5JDuEofaN-59" value="Transactions" style="rounded=0;whiteSpace=wrap;html=1;" vertex="1" parent="1">
          <mxGeometry x="-510" y="370" width="170" height="80" as="geometry" />
        </mxCell>
        <mxCell id="q_hlTN3DEtr5JDuEofaN-60" value="&lt;u&gt;author_id&lt;/u&gt;" style="ellipse;whiteSpace=wrap;html=1;" vertex="1" parent="1">
          <mxGeometry x="410" y="690" width="100" height="60" as="geometry" />
        </mxCell>
        <mxCell id="q_hlTN3DEtr5JDuEofaN-61" value="author_name" style="ellipse;whiteSpace=wrap;html=1;" vertex="1" parent="1">
          <mxGeometry x="420" y="760" width="100" height="60" as="geometry" />
        </mxCell>
        <mxCell id="q_hlTN3DEtr5JDuEofaN-62" value="&lt;u&gt;book_id&lt;/u&gt;" style="ellipse;whiteSpace=wrap;html=1;" vertex="1" parent="1">
          <mxGeometry x="-180" y="830" width="100" height="60" as="geometry" />
        </mxCell>
        <mxCell id="q_hlTN3DEtr5JDuEofaN-63" value="book_name" style="ellipse;whiteSpace=wrap;html=1;" vertex="1" parent="1">
          <mxGeometry x="-70" y="830" width="100" height="60" as="geometry" />
        </mxCell>
        <mxCell id="q_hlTN3DEtr5JDuEofaN-64" value="price" style="ellipse;whiteSpace=wrap;html=1;" vertex="1" parent="1">
          <mxGeometry x="-280" y="670" width="100" height="60" as="geometry" />
        </mxCell>
        <mxCell id="q_hlTN3DEtr5JDuEofaN-65" value="&lt;u&gt;author_id&lt;/u&gt;" style="ellipse;whiteSpace=wrap;html=1;" vertex="1" parent="1">
          <mxGeometry x="-170" y="640" width="100" height="60" as="geometry" />
        </mxCell>
        <mxCell id="q_hlTN3DEtr5JDuEofaN-66" value="&lt;u&gt;id&lt;/u&gt;" style="ellipse;whiteSpace=wrap;html=1;" vertex="1" parent="1">
          <mxGeometry x="-610" y="300" width="100" height="60" as="geometry" />
        </mxCell>
        <mxCell id="q_hlTN3DEtr5JDuEofaN-67" value="&lt;u&gt;customer_id&lt;/u&gt;" style="ellipse;whiteSpace=wrap;html=1;" vertex="1" parent="1">
          <mxGeometry x="-630" y="400" width="100" height="60" as="geometry" />
        </mxCell>
        <mxCell id="q_hlTN3DEtr5JDuEofaN-70" value="total amount" style="ellipse;whiteSpace=wrap;html=1;" vertex="1" parent="1">
          <mxGeometry x="-425" y="260" width="100" height="60" as="geometry" />
        </mxCell>
        <mxCell id="q_hlTN3DEtr5JDuEofaN-71" value="date" style="ellipse;whiteSpace=wrap;html=1;" vertex="1" parent="1">
          <mxGeometry x="-530" y="250" width="100" height="60" as="geometry" />
        </mxCell>
        <mxCell id="q_hlTN3DEtr5JDuEofaN-75" style="edgeStyle=orthogonalEdgeStyle;rounded=0;orthogonalLoop=1;jettySize=auto;html=1;exitX=0.25;exitY=0;exitDx=0;exitDy=0;entryX=0.646;entryY=0.933;entryDx=0;entryDy=0;entryPerimeter=0;endArrow=none;endFill=0;" edge="1" parent="1" source="q_hlTN3DEtr5JDuEofaN-59" target="q_hlTN3DEtr5JDuEofaN-71">
          <mxGeometry relative="1" as="geometry" />
        </mxCell>
        <mxCell id="q_hlTN3DEtr5JDuEofaN-87" value="" style="edgeStyle=entityRelationEdgeStyle;fontSize=12;html=1;endArrow=ERoneToMany;rounded=0;exitX=1;exitY=0.5;exitDx=0;exitDy=0;entryX=0;entryY=0.5;entryDx=0;entryDy=0;" edge="1" parent="1" source="q_hlTN3DEtr5JDuEofaN-102" target="q_hlTN3DEtr5JDuEofaN-57">
          <mxGeometry width="100" height="100" relative="1" as="geometry">
            <mxPoint x="20" y="870" as="sourcePoint" />
            <mxPoint x="120" y="770" as="targetPoint" />
          </mxGeometry>
        </mxCell>
        <mxCell id="q_hlTN3DEtr5JDuEofaN-97" value="" style="edgeStyle=entityRelationEdgeStyle;fontSize=12;html=1;endArrow=ERoneToMany;rounded=0;entryX=0.5;entryY=0;entryDx=0;entryDy=0;exitX=0.5;exitY=1;exitDx=0;exitDy=0;" edge="1" parent="1" source="q_hlTN3DEtr5JDuEofaN-59" target="q_hlTN3DEtr5JDuEofaN-53">
          <mxGeometry width="100" height="100" relative="1" as="geometry">
            <mxPoint x="-480" y="680" as="sourcePoint" />
            <mxPoint x="-380" y="580" as="targetPoint" />
          </mxGeometry>
        </mxCell>
        <mxCell id="q_hlTN3DEtr5JDuEofaN-100" value="Initiates" style="shape=rhombus;perimeter=rhombusPerimeter;whiteSpace=wrap;html=1;align=center;" vertex="1" parent="1">
          <mxGeometry x="-470" y="550" width="120" height="60" as="geometry" />
        </mxCell>
        <mxCell id="q_hlTN3DEtr5JDuEofaN-103" value="" style="edgeStyle=entityRelationEdgeStyle;fontSize=12;html=1;endArrow=none;rounded=0;exitX=1;exitY=0.5;exitDx=0;exitDy=0;entryX=0;entryY=0.5;entryDx=0;entryDy=0;endFill=0;" edge="1" parent="1" source="q_hlTN3DEtr5JDuEofaN-56" target="q_hlTN3DEtr5JDuEofaN-102">
          <mxGeometry width="100" height="100" relative="1" as="geometry">
            <mxPoint y="770" as="sourcePoint" />
            <mxPoint x="220" y="770" as="targetPoint" />
          </mxGeometry>
        </mxCell>
        <mxCell id="q_hlTN3DEtr5JDuEofaN-102" value="Writes" style="shape=rhombus;perimeter=rhombusPerimeter;whiteSpace=wrap;html=1;align=center;" vertex="1" parent="1">
          <mxGeometry x="50" y="740" width="120" height="60" as="geometry" />
        </mxCell>
        <mxCell id="q_hlTN3DEtr5JDuEofaN-135" style="edgeStyle=orthogonalEdgeStyle;rounded=0;orthogonalLoop=1;jettySize=auto;html=1;exitX=0;exitY=0;exitDx=0;exitDy=0;entryX=1;entryY=1;entryDx=0;entryDy=0;endArrow=none;endFill=0;" edge="1" parent="1" source="q_hlTN3DEtr5JDuEofaN-129" target="q_hlTN3DEtr5JDuEofaN-130">
          <mxGeometry relative="1" as="geometry" />
        </mxCell>
        <mxCell id="q_hlTN3DEtr5JDuEofaN-136" style="edgeStyle=orthogonalEdgeStyle;rounded=0;orthogonalLoop=1;jettySize=auto;html=1;exitX=0.25;exitY=0;exitDx=0;exitDy=0;entryX=0.5;entryY=1;entryDx=0;entryDy=0;endArrow=none;endFill=0;" edge="1" parent="1" source="q_hlTN3DEtr5JDuEofaN-129" target="q_hlTN3DEtr5JDuEofaN-131">
          <mxGeometry relative="1" as="geometry" />
        </mxCell>
        <mxCell id="q_hlTN3DEtr5JDuEofaN-138" style="edgeStyle=orthogonalEdgeStyle;rounded=0;orthogonalLoop=1;jettySize=auto;html=1;exitX=1;exitY=0.25;exitDx=0;exitDy=0;entryX=0;entryY=0.5;entryDx=0;entryDy=0;endArrow=none;endFill=0;" edge="1" parent="1" source="q_hlTN3DEtr5JDuEofaN-129" target="q_hlTN3DEtr5JDuEofaN-133">
          <mxGeometry relative="1" as="geometry" />
        </mxCell>
        <mxCell id="q_hlTN3DEtr5JDuEofaN-139" style="edgeStyle=orthogonalEdgeStyle;rounded=0;orthogonalLoop=1;jettySize=auto;html=1;exitX=1;exitY=0.75;exitDx=0;exitDy=0;entryX=0;entryY=0.5;entryDx=0;entryDy=0;endArrow=none;endFill=0;" edge="1" parent="1" source="q_hlTN3DEtr5JDuEofaN-129" target="q_hlTN3DEtr5JDuEofaN-134">
          <mxGeometry relative="1" as="geometry" />
        </mxCell>
        <mxCell id="q_hlTN3DEtr5JDuEofaN-129" value="TransactionDetails" style="whiteSpace=wrap;html=1;align=center;" vertex="1" parent="1">
          <mxGeometry x="-100" y="370" width="190" height="80" as="geometry" />
        </mxCell>
        <mxCell id="q_hlTN3DEtr5JDuEofaN-130" value="&lt;u&gt;transaction_id&lt;/u&gt;" style="ellipse;whiteSpace=wrap;html=1;" vertex="1" parent="1">
          <mxGeometry x="-210" y="260" width="100" height="60" as="geometry" />
        </mxCell>
        <mxCell id="q_hlTN3DEtr5JDuEofaN-131" value="transaction_date" style="ellipse;whiteSpace=wrap;html=1;" vertex="1" parent="1">
          <mxGeometry x="-100" y="260" width="100" height="60" as="geometry" />
        </mxCell>
        <mxCell id="q_hlTN3DEtr5JDuEofaN-132" value="book_id" style="ellipse;whiteSpace=wrap;html=1;" vertex="1" parent="1">
          <mxGeometry x="10" y="260" width="100" height="60" as="geometry" />
        </mxCell>
        <mxCell id="q_hlTN3DEtr5JDuEofaN-133" value="price_per_unit" style="ellipse;whiteSpace=wrap;html=1;" vertex="1" parent="1">
          <mxGeometry x="110" y="350" width="100" height="60" as="geometry" />
        </mxCell>
        <mxCell id="q_hlTN3DEtr5JDuEofaN-134" value="quantity" style="ellipse;whiteSpace=wrap;html=1;" vertex="1" parent="1">
          <mxGeometry x="110" y="420" width="100" height="60" as="geometry" />
        </mxCell>
        <mxCell id="q_hlTN3DEtr5JDuEofaN-137" style="edgeStyle=orthogonalEdgeStyle;rounded=0;orthogonalLoop=1;jettySize=auto;html=1;exitX=0.5;exitY=1;exitDx=0;exitDy=0;entryX=0.841;entryY=0.023;entryDx=0;entryDy=0;entryPerimeter=0;endArrow=none;endFill=0;" edge="1" parent="1" source="q_hlTN3DEtr5JDuEofaN-132" target="q_hlTN3DEtr5JDuEofaN-129">
          <mxGeometry relative="1" as="geometry" />
        </mxCell>
        <mxCell id="q_hlTN3DEtr5JDuEofaN-141" value="" style="edgeStyle=entityRelationEdgeStyle;fontSize=12;html=1;endArrow=ERmany;startArrow=ERmany;rounded=0;entryX=0;entryY=0.5;entryDx=0;entryDy=0;exitX=1;exitY=0.5;exitDx=0;exitDy=0;" edge="1" parent="1" source="q_hlTN3DEtr5JDuEofaN-147" target="q_hlTN3DEtr5JDuEofaN-129">
          <mxGeometry width="100" height="100" relative="1" as="geometry">
            <mxPoint x="-240" y="470" as="sourcePoint" />
            <mxPoint x="-140" y="370" as="targetPoint" />
          </mxGeometry>
        </mxCell>
        <mxCell id="q_hlTN3DEtr5JDuEofaN-143" style="edgeStyle=orthogonalEdgeStyle;rounded=0;orthogonalLoop=1;jettySize=auto;html=1;exitX=0.5;exitY=1;exitDx=0;exitDy=0;entryX=0.313;entryY=0.012;entryDx=0;entryDy=0;entryPerimeter=0;endArrow=none;endFill=0;" edge="1" parent="1" source="q_hlTN3DEtr5JDuEofaN-65" target="q_hlTN3DEtr5JDuEofaN-56">
          <mxGeometry relative="1" as="geometry" />
        </mxCell>
        <mxCell id="q_hlTN3DEtr5JDuEofaN-144" value="" style="edgeStyle=entityRelationEdgeStyle;fontSize=12;html=1;endArrow=ERmany;startArrow=ERmany;rounded=0;entryX=0.5;entryY=1;entryDx=0;entryDy=0;exitX=0.75;exitY=0;exitDx=0;exitDy=0;" edge="1" parent="1" source="q_hlTN3DEtr5JDuEofaN-145" target="q_hlTN3DEtr5JDuEofaN-129">
          <mxGeometry width="100" height="100" relative="1" as="geometry">
            <mxPoint x="-40" y="620" as="sourcePoint" />
            <mxPoint x="60" y="520" as="targetPoint" />
          </mxGeometry>
        </mxCell>
        <mxCell id="q_hlTN3DEtr5JDuEofaN-146" value="" style="edgeStyle=entityRelationEdgeStyle;fontSize=12;html=1;endArrow=ERmany;startArrow=ERmany;rounded=0;entryX=0.5;entryY=1;entryDx=0;entryDy=0;exitX=0.75;exitY=0;exitDx=0;exitDy=0;" edge="1" parent="1" source="q_hlTN3DEtr5JDuEofaN-56" target="q_hlTN3DEtr5JDuEofaN-145">
          <mxGeometry width="100" height="100" relative="1" as="geometry">
            <mxPoint x="-32" y="730" as="sourcePoint" />
            <mxPoint x="-5" y="450" as="targetPoint" />
          </mxGeometry>
        </mxCell>
        <mxCell id="q_hlTN3DEtr5JDuEofaN-145" value="Purchases" style="shape=rhombus;perimeter=rhombusPerimeter;whiteSpace=wrap;html=1;align=center;" vertex="1" parent="1">
          <mxGeometry x="-20" y="560" width="120" height="60" as="geometry" />
        </mxCell>
        <mxCell id="q_hlTN3DEtr5JDuEofaN-148" value="" style="edgeStyle=entityRelationEdgeStyle;fontSize=12;html=1;endArrow=ERmany;startArrow=ERmany;rounded=0;entryX=0;entryY=0.5;entryDx=0;entryDy=0;exitX=1;exitY=0.5;exitDx=0;exitDy=0;" edge="1" parent="1" source="q_hlTN3DEtr5JDuEofaN-59" target="q_hlTN3DEtr5JDuEofaN-147">
          <mxGeometry width="100" height="100" relative="1" as="geometry">
            <mxPoint x="-340" y="410" as="sourcePoint" />
            <mxPoint x="-100" y="410" as="targetPoint" />
          </mxGeometry>
        </mxCell>
        <mxCell id="q_hlTN3DEtr5JDuEofaN-147" value="Contains" style="shape=rhombus;perimeter=rhombusPerimeter;whiteSpace=wrap;html=1;align=center;" vertex="1" parent="1">
          <mxGeometry x="-290" y="380" width="120" height="60" as="geometry" />
        </mxCell>
      </root>
    </mxGraphModel>
  </diagram>
</mxfile>
